# xmcd CD database file
#
# Track frame offsets:
#	150
#	22160
#	55255
#	332550
#
# Disc length: 4440 seconds
#
# Revision: 0
# Processed by: cddbd v1.5.1PL0 Copyright (c) Steve Scherf et al.
# Submitted via: CDex 1.51
#
DISCID=31115604
DTITLE=椎名へきる - ラヴ･ジェット･コースター
DYEAR=2004
DGENRE=Rock
TTITLE0=ラヴ･ジェット･コースター
TTITLE1=ラヴ･ジェット･コースター(backtracks)
TTITLE2=CCCD
TTITLE3=CCCD
EXTD=YEAR: 2004
EXTT0=
EXTT1=
EXTT2=
EXTT3=
PLAYORDER=
